# xmcd
# Copyright (C) 1995-1998 Ti Kan
#
# Track frame offsets:
#       150
#       17928
#       35370
#       52716
#       67316
#       79867
#       95766
#       115276
#       135319
#       151795
#       167495
#       183029
#       203140
#       222358
#       241127
#
# Disc length: 3465 seconds
#
# Revision: 14
# Processed by: cddbd v1.5.1PL0 Copyright (c) Steve Scherf et al.
# Submitted via: CD-Transfer v1.0
#
DISCID=c10d870f
DTITLE=Lil' Rob - Euro Express 576
DYEAR=04
DGENRE=
TTITLE0=Dancefloor
TTITLE1=Whatever U Want
TTITLE2=Afrodisiac
TTITLE3=Baby It's You
TTITLE4=Triple Trouble
TTITLE5=I Don't Think I Ever
TTITLE6=Karma (Album Vers.)
TTITLE7=Bedda At Home (Album Vers.)(Lyrics!vynil!)
TTITLE8=True To Myself (Radio Edit)
TTITLE9=Raindrops Will Fall (Radio Edit)
TTITLE10=What You Won't Do For Love (No Rap)
TTITLE11=O.g. Bitch (Lyrics)
TTITLE12=Go Solo (Radio Edit)
TTITLE13=Straight Cadillac Pimpin' (Radio Edit)
TTITLE14=Neighborhood Music
EXTD=
EXTT0=
EXTT1=
EXTT2=
EXTT3=
EXTT4=
EXTT5=
EXTT6=
EXTT7=
EXTT8=
EXTT9=
EXTT10=
EXTT11=
EXTT12=
EXTT13=
EXTT14=
PLAYORDER=
